<?xml version="1.0" standalone="no"?>
<!DOCTYPE svg PUBLIC "-//W3C//DTD SVG 20010904//EN"
 "http://www.w3.org/TR/2001/REC-SVG-20010904/DTD/svg10.dtd">
<svg version="1.0" xmlns="http://www.w3.org/2000/svg"
 width="157.000000pt" height="118.000000pt" viewBox="0 0 157.000000 118.000000"
 preserveAspectRatio="xMidYMid meet">

<g transform="translate(0.000000,118.000000) scale(0.100000,-0.100000)"
fill="#000000" stroke="none">
<path d="M430 850 l0 -210 -130 0 c-117 0 -132 -2 -150 -20 -31 -31 -27 -93 6
-119 22 -18 41 -21 113 -21 54 0 92 -5 99 -12 7 -7 12 -36 12 -65 l0 -53 -120
0 -121 0 3 -132 3 -133 248 -3 248 -2 -3 132 -3 133 -107 3 -108 3 0 68 c0 95
-12 104 -137 111 -76 4 -98 9 -107 22 -20 33 7 43 134 46 104 3 120 2 120 -12
0 -14 36 -16 335 -16 l335 0 0 245 0 245 -335 0 -335 0 0 -210z m618 -15 c1
-93 0 -180 -3 -192 l-5 -23 -275 0 -275 0 0 195 0 195 278 -2 277 -3 3 -170z
m-820 -552 c2 -8 -5 -13 -17 -13 -12 0 -21 6 -21 16 0 18 31 15 38 -3z m72 2
c0 -8 -9 -15 -20 -15 -20 0 -26 11 -13 23 12 13 33 7 33 -8z m71 0 c0 -5 -9
-11 -21 -13 -20 -3 -27 8 -13 22 10 9 34 3 34 -9z m77 -2 c2 -8 -5 -13 -17
-13 -12 0 -21 6 -21 16 0 18 31 15 38 -3z m72 2 c0 -8 -9 -15 -20 -15 -20 0
-26 11 -13 23 12 13 33 7 33 -8z m78 -2 c2 -8 -6 -13 -22 -13 -25 0 -33 10
-19 24 10 10 36 3 41 -11z m-373 -53 c4 -6 1 -17 -5 -25 -10 -12 -10 -18 0
-30 14 -17 0 -42 -17 -32 -7 4 -10 79 -4 95 3 6 21 1 26 -8z m71 -1 c3 -6 2
-15 -2 -19 -12 -12 -38 5 -30 19 9 14 23 14 32 0z m68 5 c20 -7 21 -20 3 -27
-19 -7 -41 8 -33 22 8 13 9 13 30 5z m82 -5 c10 -17 -13 -36 -27 -22 -12 12
-4 33 11 33 5 0 12 -5 16 -11z m70 0 c10 -17 -13 -36 -27 -22 -12 12 -4 33 11
33 5 0 12 -5 16 -11z m81 -5 c5 -15 -20 -24 -37 -14 -7 4 -9 13 -5 19 8 14 37
11 42 -5z m-152 -64 c0 -12 -17 -16 -84 -18 -83 -3 -110 5 -96 28 4 7 37 10
93 8 69 -2 87 -6 87 -18z m67 -12 c-9 -9 -15 -9 -24 0 -10 10 -10 15 2 22 20
12 38 -6 22 -22z m88 12 c0 -14 -17 -21 -34 -14 -12 5 -14 10 -6 20 12 13 40
9 40 -6z"/>
<path d="M520 815 l0 -165 250 0 250 0 0 165 0 165 -250 0 -250 0 0 -165z
m390 135 c0 -5 5 -9 12 -7 7 1 12 -12 14 -30 1 -22 -3 -33 -12 -33 -8 0 -14
-4 -14 -10 0 -5 -7 -10 -15 -10 -8 0 -15 4 -15 9 0 5 -8 11 -18 13 -20 6 -25
63 -5 63 6 0 15 3 19 8 11 10 34 9 34 -3z m-160 -14 c0 -8 7 -13 16 -12 9 0
20 -9 25 -21 8 -22 7 -23 -56 -23 -63 0 -64 1 -56 23 5 12 16 21 25 21 9 -1
16 4 16 12 0 8 7 14 15 14 8 0 15 -6 15 -14z m40 -84 c0 -29 -74 -44 -98 -20
-22 22 -13 28 43 28 30 0 55 -4 55 -8z m89 -1 c22 -14 21 -49 -2 -55 -10 -2
-25 -2 -33 1 -17 6 -19 50 -1 56 18 8 21 8 36 -2z m-64 -85 c27 -12 35 -21 35
-40 l0 -26 -115 0 -115 0 0 25 c0 20 8 29 33 40 42 19 119 19 162 1z"/>
<path d="M876 921 c-3 -5 1 -14 8 -20 16 -13 32 2 21 19 -8 12 -22 13 -29 1z"/>
<path d="M855 820 c3 -5 8 -10 11 -10 2 0 4 5 4 10 0 6 -5 10 -11 10 -5 0 -7
-4 -4 -10z"/>
<path d="M602 518 c-6 -26 -14 -34 -35 -36 -24 -3 -27 -7 -27 -43 l0 -39 205
0 205 0 0 40 c0 39 -1 40 -35 40 -28 0 -35 4 -35 19 0 49 -4 51 -141 51 l-128
0 -9 -32z"/>
<path d="M660 260 c0 -5 5 -10 10 -10 6 0 10 -25 10 -55 0 -48 2 -55 20 -55
17 0 20 7 20 49 0 27 3 56 6 65 5 13 -1 16 -30 16 -20 0 -36 -4 -36 -10z"/>
<path d="M827 264 c-11 -11 -8 -112 4 -119 5 -4 21 -4 35 -1 17 5 24 13 24 31
0 32 -27 33 -33 3 -2 -13 -4 0 -4 27 -1 28 1 42 4 33 7 -27 35 -23 31 5 -2 15
-11 23 -28 25 -14 2 -29 0 -33 -4z"/>
<path d="M1277 248 c-9 -25 8 -103 23 -106 12 -2 15 8 13 50 0 29 -2 56 -2 61
-2 12 -29 8 -34 -5z"/>
<path d="M747 233 c-15 -14 -7 -84 9 -90 18 -7 46 7 52 25 5 16 -25 15 -31 0
-3 -8 -6 -6 -6 5 -1 11 6 17 19 17 22 0 26 20 8 38 -13 13 -41 16 -51 5z"/>
<path d="M917 233 c-15 -14 -7 -84 9 -90 38 -14 71 49 43 83 -12 15 -41 19
-52 7z m30 -60 c-3 -10 -5 -2 -5 17 0 19 2 27 5 18 2 -10 2 -26 0 -35z"/>
<path d="M990 189 c0 -36 4 -49 14 -49 10 0 16 14 19 43 l4 42 1 -42 c1 -30 6
-43 16 -43 10 0 16 14 19 43 l4 42 1 -42 c2 -32 6 -43 18 -43 12 0 14 10 12
47 l-3 47 -52 2 -53 2 0 -49z"/>
<path d="M1110 184 c0 -41 4 -54 15 -54 8 0 15 4 15 9 0 5 9 7 20 4 18 -5 20
0 20 45 l0 50 -35 0 -35 0 0 -54z m37 -11 c-3 -10 -5 -2 -5 17 0 19 2 27 5 18
2 -10 2 -26 0 -35z"/>
<path d="M1192 193 c3 -46 4 -48 36 -51 l32 -3 0 50 c0 38 -4 51 -14 51 -10 0
-16 -14 -19 -42 l-4 -43 -1 43 c-2 31 -6 42 -18 42 -12 0 -14 -10 -12 -47z"/>
<path d="M1337 233 c-15 -14 -7 -84 9 -90 18 -7 46 7 52 25 5 16 -25 15 -31 0
-3 -8 -6 -6 -6 5 -1 11 6 17 19 17 22 0 26 20 8 38 -13 13 -41 16 -51 5z"/>
<path d="M1410 190 c0 -38 4 -50 15 -50 10 0 15 11 15 35 0 19 5 35 10 35 22
0 8 26 -15 28 -24 2 -25 -1 -25 -48z"/>
<path d="M1450 155 c0 -8 5 -15 10 -15 6 0 10 7 10 15 0 8 -4 15 -10 15 -5 0
-10 -7 -10 -15z"/>
</g>
</svg>
